<svg width="50" height="40" viewBox="0 0 50 40" fill="none" xmlns="http://www.w3.org/2000/svg">
<rect width="50" height="40" transform="matrix(-1 0 0 1 50 0)" fill="#F0FEFF"/>
<path d="M50 5.66667V7.194V32.806V34.3333H1.19209e-06V32.806V7.194V5.66667H50ZM19.4792 20.376L24.0175 24.024C24.5692 24.434 25.4325 24.4333 25.9608 24.0413L30.5217 20.376L30.4817 20.3447L46.9608 7H3.02833L19.5192 20.3453L19.4792 20.376ZM32.8967 20.3553L48.3333 32.2367V7.94867L32.8967 20.3553ZM31.7217 21.3L27.1192 24.9993C26.5283 25.44 25.77 25.6613 25.0083 25.6613C24.2392 25.6613 23.4667 25.4353 22.8575 24.9813L18.2775 21.3L3.08 33H46.9283L31.7217 21.3ZM17.1025 20.356L1.66667 7.948V32.2367L17.1025 20.356Z" fill="#0060FF"/>
</svg>
