<svg width="50" height="40" viewBox="0 0 50 40" fill="none" xmlns="http://www.w3.org/2000/svg">
<path d="M39.5833 20C39.5833 16.75 38.1684 13.9931 35.3385 11.7292C32.5087 9.46528 29.0625 8.33333 25 8.33333V5C27.6042 5 30.0434 5.39583 32.3177 6.1875C34.592 6.97917 36.5712 8.04861 38.2552 9.39583C39.9392 10.7431 41.276 12.3264 42.2656 14.1458C43.2552 15.9653 43.75 17.9167 43.75 20H39.5833ZM31.25 20C31.25 18.6111 30.6424 17.4306 29.4271 16.4583C28.2118 15.4861 26.7361 15 25 15V11.6667C27.8819 11.6667 30.3385 12.4792 32.3698 14.1042C34.401 15.7292 35.4167 17.6944 35.4167 20H31.25ZM41.5625 35C37.2222 35 32.934 34.2431 28.6979 32.7292C24.4618 31.2153 20.6076 29.0694 17.1354 26.2917C13.6632 23.5139 10.9809 20.4306 9.08854 17.0417C7.19618 13.6528 6.25 10.2222 6.25 6.75C6.25 6.25 6.45833 5.83333 6.875 5.5C7.29167 5.16667 7.8125 5 8.4375 5H16.875C17.3611 5 17.7951 5.13194 18.1771 5.39583C18.559 5.65972 18.7847 5.97222 18.8542 6.33333L20.2083 12.1667C20.2778 12.6111 20.2604 12.9861 20.1562 13.2917C20.0521 13.5972 19.8611 13.8611 19.5833 14.0833L14.5312 18.1667C15.2257 19.1944 16.0503 20.1875 17.0052 21.1458C17.9601 22.1042 19.0104 23.0278 20.1562 23.9167C21.2326 24.7778 22.3611 25.5764 23.5417 26.3125C24.7222 27.0486 25.9722 27.7222 27.2917 28.3333L32.1875 24.4167C32.5 24.1667 32.908 23.9792 33.4115 23.8542C33.9149 23.7292 34.4097 23.6944 34.8958 23.75L42.0833 24.9167C42.5694 25.0278 42.9687 25.2292 43.2812 25.5208C43.5937 25.8125 43.75 26.1389 43.75 26.5V33.25C43.75 33.75 43.5417 34.1667 43.125 34.5C42.7083 34.8333 42.1875 35 41.5625 35ZM12.5521 15L15.9896 12.25L15.1042 8.33333H10.4687C10.6424 9.47222 10.8854 10.5972 11.1979 11.7083C11.5104 12.8194 11.9618 13.9167 12.5521 15ZM31.1979 29.9167C32.5521 30.3889 33.9323 30.7639 35.3385 31.0417C36.7448 31.3194 38.1597 31.5 39.5833 31.5833V27.9167L34.6875 27.125L31.1979 29.9167Z" fill="#0060FF"/>
</svg>
